<?xml version="1.0" encoding="iso-8859-1"?>
<!-- Generator: Adobe Illustrator 19.0.0, SVG Export Plug-In . SVG Version: 6.00 Build 0)  -->
<svg xmlns="http://www.w3.org/2000/svg" xmlns:xlink="http://www.w3.org/1999/xlink" version="1.1" id="Capa_1" x="0px" y="0px" viewBox="0 0 512 512" style="enable-background:new 0 0 512 512;" xml:space="preserve" width="80px" height="80px" fill="#3B4966">
<g>
	<g>
		<path d="M208,224H16c-8.832,0-16,7.168-16,16v256c0,8.832,7.168,16,16,16h192c8.832,0,16-7.168,16-16V240    C224,231.168,216.832,224,208,224z M96,384H64v-32h32V384z M96,320H64v-32h32V320z M160,384h-32v-32h32V384z M160,320h-32v-32h32    V320z"/>
	</g>
</g>
<g>
	<g>
		<path d="M368,0H112c-8.832,0-16,7.168-16,16v176h139.424c11.36,0,20.576,8.736,20.576,19.552V256l32-32v-80    c0-8.832,7.168-16,16-16h80V16C384,7.168,376.832,0,368,0z M192,160h-32v-32h32V160z M192,96h-32V64h32V96z M256,160h-32v-32h32    V160z M256,96h-32V64h32V96z M320,96h-32V64h32V96z"/>
	</g>
</g>
<g>
	<g>
		<path d="M496,160H336c-8.832,0-16,7.168-16,16v55.424l-56.864,59.264C258.656,293.664,256,298.656,256,304v192    c0,8.832,7.168,16,16,16h224c8.832,0,16-7.168,16-16V176C512,167.168,504.832,160,496,160z M448,416h-64v-64h64V416z M448,288h-64    v-64h64V288z"/>
	</g>
</g>
<g>
</g>
<g>
</g>
<g>
</g>
<g>
</g>
<g>
</g>
<g>
</g>
<g>
</g>
<g>
</g>
<g>
</g>
<g>
</g>
<g>
</g>
<g>
</g>
<g>
</g>
<g>
</g>
<g>
</g>
</svg>
