<svg xmlns="http://www.w3.org/2000/svg" xmlns:xlink="http://www.w3.org/1999/xlink" version="1.0" x="0px" y="0px" viewBox="0 0 128 160" style="enable-background:new 0 0 128 128;" xml:space="preserve" fill="#3B4965"><g><path d="M120.4,17.9H38.6c-3.2,0-5.7,2.6-5.7,5.7c0,0.8,0.7,1.5,1.5,1.5s1.5-0.7,1.5-1.5c0-1.5,1.2-2.7,2.7-2.7h81.8   c1.5,0,2.7,1.2,2.7,2.7v56.5c0,0-0.1,0-0.1,0H60.3c-0.8,0-1.5,0.7-1.5,1.5s0.7,1.5,1.5,1.5H123c0,0,0.1,0,0.1,0v5.2   c0,1.5-1.2,2.8-2.8,2.8h-60c-0.8,0-1.5,0.7-1.5,1.5s0.7,1.5,1.5,1.5H78v13H61.8c-0.8,0-1.5,0.7-1.5,1.5s0.7,1.5,1.5,1.5h35.3   c0.8,0,1.5-0.7,1.5-1.5s-0.7-1.5-1.5-1.5H81v-13h39.4c3.2,0,5.8-2.6,5.8-5.8V23.6C126.1,20.5,123.6,17.9,120.4,17.9z"/><path d="M22.5,37.1H35c0.8,0,1.5-0.7,1.5-1.5s-0.7-1.5-1.5-1.5H22.5c-0.8,0-1.5,0.7-1.5,1.5S21.7,37.1,22.5,37.1z"/><path d="M50.5,28.9H7c-2.9,0-5.2,2.1-5.2,4.7v71.7c0,2.6,2.3,4.7,5.2,4.7h43.5c2.9,0,5.2-2.1,5.2-4.7V33.6   C55.7,31,53.4,28.9,50.5,28.9z M4.9,42.1h47.8v54.8H4.9V42.1z M7,31.9h43.5c1.2,0,2.2,0.8,2.2,1.7v5.5H4.9v-5.5   C4.9,32.7,5.9,31.9,7,31.9z M50.5,107H7c-1.2,0-2.2-0.8-2.2-1.7v-5.4h47.8v5.4C52.7,106.2,51.7,107,50.5,107z"/><path d="M28.8,101.4c-1,0-1.8,0.8-1.8,1.8s0.8,1.8,1.8,1.8s1.8-0.8,1.8-1.8S29.8,101.4,28.8,101.4z M28.8,104.4   c-0.6,0-1.2-0.5-1.2-1.2s0.5-1.2,1.2-1.2s1.2,0.5,1.2,1.2S29.5,104.4,28.8,104.4z"/><path d="M59.4,55.8c-0.7,0.5-0.8,1.4-0.3,2.1c0.3,0.4,0.8,0.6,1.2,0.6c0.3,0,0.6-0.1,0.9-0.3l7.8-5.6c0.3-0.2,0.5-0.5,0.6-0.8   c1,0.7,2.2,1.1,3.5,1.1c0.8,0,1.5-0.1,2.2-0.4l8.9,12.6c-0.6,1-1,2.2-1,3.4c0,3.6,2.9,6.5,6.5,6.5c3.6,0,6.5-2.9,6.5-6.5   c0-2.1-1-4-2.6-5.1l12.1-21.5c0.2,0,0.4,0,0.6,0c3.6,0,6.5-2.9,6.5-6.5s-2.9-6.5-6.5-6.5c-3.6,0-6.5,2.9-6.5,6.5   c0,2.3,1.2,4.3,3,5.4l-12,21.3c-0.4-0.1-0.7-0.1-1.1-0.1c-1.2,0-2.3,0.3-3.3,0.9l-8.5-12.2c1.1-1.2,1.7-2.7,1.7-4.4   c0-3.6-2.9-6.5-6.5-6.5c-3.6,0-6.5,2.9-6.5,6.5c0,1.3,0.4,2.5,1.1,3.5c-0.1,0-0.3,0.1-0.4,0.2L59.4,55.8z M106.1,32   c1.9,0,3.5,1.5,3.5,3.5s-1.5,3.5-3.5,3.5s-3.5-1.5-3.5-3.5S104.2,32,106.1,32z M93,68.5c0,1.9-1.5,3.5-3.5,3.5   c-1.9,0-3.5-1.5-3.5-3.5c0-1.9,1.5-3.5,3.5-3.5C91.5,65.1,93,66.6,93,68.5z M73,43c1.9,0,3.5,1.5,3.5,3.5s-1.5,3.5-3.5,3.5   c-1.9,0-3.5-1.5-3.5-3.5S71.1,43,73,43z"/><path d="M48.9,65.1c-0.5-0.7-1.4-0.8-2.1-0.3L33,74.6c-1.1-0.9-2.6-1.5-4.2-1.5c-3.6,0-6.5,2.9-6.5,6.5c0,3.6,2.9,6.5,6.5,6.5   c3.6,0,6.5-2.9,6.5-6.5c0-0.9-0.2-1.7-0.5-2.5l13.8-9.8C49.2,66.7,49.4,65.8,48.9,65.1z M28.9,83c-1.9,0-3.5-1.5-3.5-3.5   c0-1.9,1.5-3.5,3.5-3.5c1.9,0,3.5,1.5,3.5,3.5C32.3,81.5,30.8,83,28.9,83z"/></g></svg>