<svg xmlns="http://www.w3.org/2000/svg" xmlns:xlink="http://www.w3.org/1999/xlink" version="1.1" x="0px" y="0px" viewBox="0 0 110 137.5" enable-background="new 0 0 110 110" xml:space="preserve" fill="#3B4965"><g><path d="M22,12.653c-6.629,0-12-0.93-12-2.08v6.447c0,1.149,5.371,2.08,12,2.08s12-0.93,12-2.08v-6.447   C34,11.723,28.629,12.653,22,12.653z"/><path d="M22,20.593c-6.629,0-12-0.93-12-2.08v6.447c0,1.149,5.371,2.079,12,2.079s12-0.93,12-2.079v-6.447   C34,19.664,28.629,20.593,22,20.593z"/><path d="M22,28.553c-6.629,0-12-0.931-12-2.08v6.447C10,34.069,15.371,35,22,35s12-0.931,12-2.08v-6.447   C34,27.622,28.629,28.553,22,28.553z"/><ellipse cx="22" cy="9.08" rx="12" ry="2.08"/><path d="M22,46.653c-6.629,0-12-0.93-12-2.08v6.446c0,1.15,5.371,2.08,12,2.08s12-0.93,12-2.08v-6.446   C34,45.723,28.629,46.653,22,46.653z"/><path d="M22,54.594c-6.629,0-12-0.93-12-2.08v6.447c0,1.149,5.371,2.079,12,2.079s12-0.93,12-2.079v-6.447   C34,53.664,28.629,54.594,22,54.594z"/><path d="M22,62.553c-6.629,0-12-0.931-12-2.08v6.447C10,68.069,15.371,69,22,69s12-0.931,12-2.08v-6.447   C34,61.622,28.629,62.553,22,62.553z"/><ellipse cx="22" cy="43.08" rx="12" ry="2.08"/><path d="M22,80.652c-6.629,0-12-0.93-12-2.079v6.446c0,1.15,5.371,2.08,12,2.08s12-0.93,12-2.08v-6.446   C34,79.723,28.629,80.652,22,80.652z"/><path d="M22,88.594c-6.629,0-12-0.93-12-2.08v6.447c0,1.149,5.371,2.079,12,2.079s12-0.93,12-2.079v-6.447   C34,87.664,28.629,88.594,22,88.594z"/><path d="M22,96.553c-6.629,0-12-0.931-12-2.08v6.447c0,1.149,5.371,2.08,12,2.08s12-0.931,12-2.08v-6.447   C34,95.622,28.629,96.553,22,96.553z"/><ellipse cx="22" cy="77.08" rx="12" ry="2.08"/><path d="M88,12.653c-6.629,0-12-0.93-12-2.08v6.447c0,1.149,5.371,2.08,12,2.08s12-0.93,12-2.08v-6.447   C100,11.723,94.629,12.653,88,12.653z"/><path d="M88,20.593c-6.629,0-12-0.93-12-2.08v6.447c0,1.149,5.371,2.079,12,2.079s12-0.93,12-2.079v-6.447   C100,19.664,94.629,20.593,88,20.593z"/><path d="M88,28.553c-6.629,0-12-0.931-12-2.08v6.447C76,34.069,81.371,35,88,35s12-0.931,12-2.08v-6.447   C100,27.622,94.629,28.553,88,28.553z"/><ellipse cx="88" cy="9.08" rx="12" ry="2.08"/><path d="M88,46.653c-6.629,0-12-0.93-12-2.08v6.446c0,1.15,5.371,2.08,12,2.08s12-0.93,12-2.08v-6.446   C100,45.723,94.629,46.653,88,46.653z"/><path d="M88,54.594c-6.629,0-12-0.93-12-2.08v6.447c0,1.149,5.371,2.079,12,2.079s12-0.93,12-2.079v-6.447   C100,53.664,94.629,54.594,88,54.594z"/><path d="M88,62.553c-6.629,0-12-0.931-12-2.08v6.447C76,68.069,81.371,69,88,69s12-0.931,12-2.08v-6.447   C100,61.622,94.629,62.553,88,62.553z"/><ellipse cx="88" cy="43.08" rx="12" ry="2.08"/><path d="M88,80.652c-6.629,0-12-0.93-12-2.079v6.446c0,1.15,5.371,2.08,12,2.08s12-0.93,12-2.08v-6.446   C100,79.723,94.629,80.652,88,80.652z"/><path d="M88,88.594c-6.629,0-12-0.93-12-2.08v6.447c0,1.149,5.371,2.079,12,2.079s12-0.93,12-2.079v-6.447   C100,87.664,94.629,88.594,88,88.594z"/><path d="M88,96.553c-6.629,0-12-0.931-12-2.08v6.447c0,1.149,5.371,2.08,12,2.08s12-0.931,12-2.08v-6.447   C100,95.622,94.629,96.553,88,96.553z"/><ellipse cx="88" cy="77.08" rx="12" ry="2.08"/><path d="M64,55c0-4.97-4.029-9-9-9c-4.97,0-9,4.03-9,9c0,4.971,4.03,9,9,9C59.971,64,64,59.971,64,55z M50,55c0-2.757,2.243-5,5-5   s5,2.243,5,5s-2.243,5-5,5S50,57.757,50,55z"/><polygon points="57,66 53,66 53,86 36,86 36,90 74,90 74,86 57,86  "/><polygon points="36,24 53,24 53,44 57,44 57,24 74,24 74,20 36,20  "/><rect x="36" y="53" width="8" height="4"/><rect x="66" y="53" width="8" height="4"/></g></svg>