<svg xmlns="http://www.w3.org/2000/svg" xmlns:xlink="http://www.w3.org/1999/xlink" version="1.1" x="0px" y="0px" viewBox="0 0 208 220" enable-background="new 0 0 208 176" xml:space="preserve" fill="#3B4965"><path display="none" fill="#000000" stroke="#000000" stroke-width="0.7512" d="M159.715,116.671  c0,14.937-12.104,27.044-27.045,27.044H54.544c-14.936,0-27.044-12.107-27.044-27.044V38.544C27.5,23.608,39.608,11.5,54.544,11.5  h78.126c14.938,0,27.045,12.108,27.045,27.044V116.671z"/><circle display="none" fill="#000000" stroke="#000000" stroke-width="0.7512" cx="118.396" cy="103.148" r="62.351"/><path d="M186.987,104.724h-22.395c-0.715-6.28-6.055-11.177-12.522-11.177c-3.816,0-7.237,1.711-9.553,4.401l-10.84-7.39  l11.655-7.556c2.269,2.187,5.348,3.539,8.737,3.539c6.479,0,11.827-4.914,12.527-11.208h22.39v8.043l11.914-9.444l-11.914-9.445  v8.044h-22.39c-0.7-6.295-6.049-11.208-12.527-11.208c-3.818,0-7.237,1.713-9.553,4.403L114.77,46.81  c0.785-1.532,1.237-3.263,1.237-5.102c0-6.189-5.018-11.208-11.209-11.208c-6.19,0-11.208,5.019-11.208,11.208  c0,0.644,0.066,1.269,0.17,1.881l-24.228,9.011c-2.003-4.319-6.369-7.328-11.435-7.328c-6.888,0-12.495,5.554-12.6,12.418  l-10.865-8.614v8.043h-20.2v2.802h20.2v8.043l10.94-8.673c0.705,6.291,6.05,11.199,12.525,11.199  c6.952,0,12.609-5.656,12.609-12.609c0-0.9-0.099-1.777-0.279-2.625l24.143-8.979c1.75,3.911,5.667,6.639,10.227,6.639  c3.343,0,6.336-1.472,8.39-3.794l27.746,18.914c-0.938,1.761-1.473,3.765-1.473,5.896c0,2.547,0.766,4.917,2.069,6.901  l-12.363,8.015l-14.397-9.813c0.785-1.533,1.237-3.263,1.237-5.102c0-6.19-5.018-11.208-11.209-11.208  c-6.19,0-11.208,5.019-11.208,11.208c0,0.821,0.094,1.619,0.261,2.389L68.95,83.717c-2.196-3.716-6.232-6.221-10.853-6.221  c-6.717,0-12.209,5.284-12.574,11.911l-10.892-8.631v8.101h-20.2v2.802h20.2v7.983l10.902-8.642  c0.472,6.526,5.919,11.694,12.563,11.694c4.911,0,9.165-2.828,11.246-6.937l24.465,8.18c-0.141,0.711-0.218,1.445-0.218,2.198  c0,6.189,5.018,11.208,11.208,11.208c6.191,0,11.209-5.019,11.209-11.208c0-1.7-0.391-3.305-1.066-4.748l14.187-9.195l11.807,8.046  c-0.936,1.761-1.473,3.767-1.473,5.897c0,2.437,0.706,4.706,1.908,6.637l-28.054,18.435c-2.056-2.403-5.106-3.933-8.518-3.933  c-4.406,0-8.207,2.549-10.038,6.245l-24.368-8.444c0.2-0.892,0.315-1.815,0.315-2.767c0-6.953-5.657-12.609-12.609-12.609  c-6.566,0-11.97,5.046-12.551,11.464l-10.914-8.65v8.536h-20.2v2.802h20.2v7.549l10.88-8.624c0.248,6.737,5.79,12.143,12.585,12.143  c5.013,0,9.339-2.948,11.37-7.195l24.365,8.443c-0.157,0.747-0.243,1.521-0.243,2.316c0,6.189,5.018,11.208,11.208,11.208  c6.191,0,11.209-5.019,11.209-11.208c0-1.772-0.423-3.441-1.153-4.93l28.25-18.566c2.288,2.317,5.462,3.758,8.967,3.758  c6.49,0,11.847-4.929,12.531-11.239h22.386v7.548l11.914-9.442l-11.914-9.443V104.724z M58.098,67.689  c-5.408,0-9.808-4.4-9.808-9.807s4.399-9.808,9.808-9.808c5.408,0,9.807,4.4,9.807,9.808S63.505,67.689,58.098,67.689z   M152.07,64.125c5.407,0,9.808,4.4,9.808,9.807c0,5.407-4.4,9.807-9.808,9.807c-5.406,0-9.807-4.4-9.807-9.807  C142.264,68.525,146.664,64.125,152.07,64.125z M58.098,99.913c-5.408,0-9.808-4.4-9.808-9.808s4.399-9.807,9.808-9.807  c5.408,0,9.807,4.4,9.807,9.807S63.505,99.913,58.098,99.913z M113.452,99.034c-2.056-2.495-5.169-4.087-8.654-4.087  c-4.45,0-8.282,2.6-10.091,6.356L70.32,93.151c0.243-0.978,0.387-1.994,0.387-3.046c0-1.328-0.209-2.608-0.592-3.811l24.679-7.329  c1.844,3.658,5.626,6.174,10.004,6.174c3.343,0,6.336-1.472,8.39-3.794l13.43,9.155L113.452,99.034z M58.098,132.137  c-5.408,0-9.808-4.4-9.808-9.808s4.399-9.808,9.808-9.808c5.408,0,9.807,4.4,9.807,9.808S63.505,132.137,58.098,132.137z   M152.07,115.963c-5.406,0-9.807-4.4-9.807-9.807c0-5.407,4.4-9.808,9.807-9.808c5.407,0,9.808,4.4,9.808,9.808  C161.878,111.563,157.478,115.963,152.07,115.963z"/></svg>